# xmcd
#
# Track frame offsets: 
#        150
#        14105
#        27842
#        43605
#        57045
#        72962
#        89075
#        108305
#        126420
#        145782
#        162485
#        176797
#        193832
#        219667
#
# Disc length: 3160 seconds
#
# Revision: 0
# Processed by: cddbd v1.5.2PL0 Copyright (c) Steve Scherf et al.
# Submitted via: ExactAudioCopy v1.0b3
#
DISCID=d60c560e
DTITLE=舟木一夫 - 舟木一夫 ゴールデンベスト COCP-33647
DYEAR=1900
DGENRE=Blues
TTITLE0=高校三年生
TTITLE1=修学旅行
TTITLE2=学園広場 
TTITLE3=仲間たち 
TTITLE4=まだみぬ君を恋うる歌 
TTITLE5=花咲く乙女たち 
TTITLE6=高原のお嬢さん 
TTITLE7=哀愁の夜 
TTITLE8=絶唱
TTITLE9=星の広場へ集まれ! 
TTITLE10=一葉舟
TTITLE11=君よ 振りむくな
TTITLE12=浮世まかせ 
TTITLE13=恋唄
EXTD=
EXTT0=
EXTT1=
EXTT2=
EXTT3=
EXTT4=
EXTT5=
EXTT6=
EXTT7=
EXTT8=
EXTT9=
EXTT10=
EXTT11=
EXTT12=
EXTT13=
PLAYORDER=
